<mxfile host="app.diagrams.net" modified="2023-03-28T00:33:57.357Z" agent="5.0 (Windows NT 10.0; Win64; x64) AppleWebKit/537.36 (KHTML, like Gecko) Chrome/111.0.0.0 Safari/537.36 Edg/111.0.1661.54" etag="Wv-qr6deIedngMg96rgO" version="21.0.2" type="github">
  <diagram id="C5RBs43oDa-KdzZeNtuy" name="Page-1">
    <mxGraphModel dx="2901" dy="827" grid="1" gridSize="10" guides="1" tooltips="1" connect="1" arrows="1" fold="1" page="1" pageScale="1" pageWidth="827" pageHeight="1169" math="0" shadow="0">
      <root>
        <mxCell id="WIyWlLk6GJQsqaUBKTNV-0" />
        <mxCell id="WIyWlLk6GJQsqaUBKTNV-1" parent="WIyWlLk6GJQsqaUBKTNV-0" />
        <mxCell id="ZZL4uxudQZsR0YkGOQYg-3" style="edgeStyle=orthogonalEdgeStyle;rounded=0;orthogonalLoop=1;jettySize=auto;html=1;entryX=0.5;entryY=0;entryDx=0;entryDy=0;" edge="1" parent="WIyWlLk6GJQsqaUBKTNV-1" source="ZZL4uxudQZsR0YkGOQYg-0" target="ZZL4uxudQZsR0YkGOQYg-2">
          <mxGeometry relative="1" as="geometry" />
        </mxCell>
        <mxCell id="ZZL4uxudQZsR0YkGOQYg-0" value="Create PO" style="rounded=1;whiteSpace=wrap;html=1;" vertex="1" parent="WIyWlLk6GJQsqaUBKTNV-1">
          <mxGeometry x="210" y="140" width="120" height="40" as="geometry" />
        </mxCell>
        <mxCell id="ZZL4uxudQZsR0YkGOQYg-6" style="edgeStyle=orthogonalEdgeStyle;rounded=0;orthogonalLoop=1;jettySize=auto;html=1;exitX=1;exitY=0.5;exitDx=0;exitDy=0;entryX=0;entryY=0.5;entryDx=0;entryDy=0;" edge="1" parent="WIyWlLk6GJQsqaUBKTNV-1" source="ZZL4uxudQZsR0YkGOQYg-2" target="ZZL4uxudQZsR0YkGOQYg-4">
          <mxGeometry relative="1" as="geometry" />
        </mxCell>
        <mxCell id="ZZL4uxudQZsR0YkGOQYg-10" value="Is Order" style="edgeStyle=orthogonalEdgeStyle;rounded=0;orthogonalLoop=1;jettySize=auto;html=1;entryX=0.5;entryY=0;entryDx=0;entryDy=0;" edge="1" parent="WIyWlLk6GJQsqaUBKTNV-1" source="ZZL4uxudQZsR0YkGOQYg-2" target="ZZL4uxudQZsR0YkGOQYg-9">
          <mxGeometry relative="1" as="geometry" />
        </mxCell>
        <mxCell id="ZZL4uxudQZsR0YkGOQYg-2" value="Is Order or Quote" style="rhombus;whiteSpace=wrap;html=1;" vertex="1" parent="WIyWlLk6GJQsqaUBKTNV-1">
          <mxGeometry x="197.5" y="240" width="145" height="50" as="geometry" />
        </mxCell>
        <mxCell id="ZZL4uxudQZsR0YkGOQYg-7" value="Is Quote" style="edgeStyle=orthogonalEdgeStyle;rounded=0;orthogonalLoop=1;jettySize=auto;html=1;entryX=1;entryY=0.5;entryDx=0;entryDy=0;" edge="1" parent="WIyWlLk6GJQsqaUBKTNV-1" source="ZZL4uxudQZsR0YkGOQYg-4" target="ZZL4uxudQZsR0YkGOQYg-2">
          <mxGeometry relative="1" as="geometry" />
        </mxCell>
        <mxCell id="ZZL4uxudQZsR0YkGOQYg-4" value="Purchase Quote Tab" style="rounded=0;whiteSpace=wrap;html=1;" vertex="1" parent="WIyWlLk6GJQsqaUBKTNV-1">
          <mxGeometry x="440" y="247.5" width="120" height="35" as="geometry" />
        </mxCell>
        <mxCell id="ZZL4uxudQZsR0YkGOQYg-13" value="No" style="edgeStyle=orthogonalEdgeStyle;rounded=0;orthogonalLoop=1;jettySize=auto;html=1;exitX=0.5;exitY=1;exitDx=0;exitDy=0;entryX=0.5;entryY=0;entryDx=0;entryDy=0;" edge="1" parent="WIyWlLk6GJQsqaUBKTNV-1" source="ZZL4uxudQZsR0YkGOQYg-9" target="ZZL4uxudQZsR0YkGOQYg-12">
          <mxGeometry relative="1" as="geometry" />
        </mxCell>
        <mxCell id="ZZL4uxudQZsR0YkGOQYg-15" value="Yes" style="edgeStyle=orthogonalEdgeStyle;rounded=0;orthogonalLoop=1;jettySize=auto;html=1;exitX=1;exitY=0.5;exitDx=0;exitDy=0;entryX=0;entryY=0.5;entryDx=0;entryDy=0;" edge="1" parent="WIyWlLk6GJQsqaUBKTNV-1" source="ZZL4uxudQZsR0YkGOQYg-9" target="ZZL4uxudQZsR0YkGOQYg-14">
          <mxGeometry relative="1" as="geometry" />
        </mxCell>
        <mxCell id="ZZL4uxudQZsR0YkGOQYg-9" value="Is Amount over Limit&amp;nbsp;" style="rhombus;whiteSpace=wrap;html=1;" vertex="1" parent="WIyWlLk6GJQsqaUBKTNV-1">
          <mxGeometry x="192.5" y="350" width="155" height="80" as="geometry" />
        </mxCell>
        <mxCell id="ZZL4uxudQZsR0YkGOQYg-21" style="edgeStyle=orthogonalEdgeStyle;rounded=0;orthogonalLoop=1;jettySize=auto;html=1;exitX=0.5;exitY=1;exitDx=0;exitDy=0;" edge="1" parent="WIyWlLk6GJQsqaUBKTNV-1" source="ZZL4uxudQZsR0YkGOQYg-12" target="ZZL4uxudQZsR0YkGOQYg-20">
          <mxGeometry relative="1" as="geometry" />
        </mxCell>
        <mxCell id="ZZL4uxudQZsR0YkGOQYg-12" value="Waiting In NS Tab" style="rounded=0;whiteSpace=wrap;html=1;" vertex="1" parent="WIyWlLk6GJQsqaUBKTNV-1">
          <mxGeometry x="210" y="500" width="120" height="40" as="geometry" />
        </mxCell>
        <mxCell id="ZZL4uxudQZsR0YkGOQYg-16" style="edgeStyle=orthogonalEdgeStyle;rounded=0;orthogonalLoop=1;jettySize=auto;html=1;exitX=0.5;exitY=1;exitDx=0;exitDy=0;entryX=1;entryY=0.5;entryDx=0;entryDy=0;" edge="1" parent="WIyWlLk6GJQsqaUBKTNV-1" source="ZZL4uxudQZsR0YkGOQYg-14" target="ZZL4uxudQZsR0YkGOQYg-12">
          <mxGeometry relative="1" as="geometry" />
        </mxCell>
        <mxCell id="ZZL4uxudQZsR0YkGOQYg-17" value="Yes" style="edgeLabel;html=1;align=center;verticalAlign=middle;resizable=0;points=[];" vertex="1" connectable="0" parent="ZZL4uxudQZsR0YkGOQYg-16">
          <mxGeometry x="-0.5327" y="3" relative="1" as="geometry">
            <mxPoint as="offset" />
          </mxGeometry>
        </mxCell>
        <mxCell id="ZZL4uxudQZsR0YkGOQYg-18" value="No" style="edgeStyle=orthogonalEdgeStyle;rounded=0;orthogonalLoop=1;jettySize=auto;html=1;exitX=1;exitY=0.5;exitDx=0;exitDy=0;" edge="1" parent="WIyWlLk6GJQsqaUBKTNV-1" source="ZZL4uxudQZsR0YkGOQYg-14" target="ZZL4uxudQZsR0YkGOQYg-19">
          <mxGeometry relative="1" as="geometry">
            <mxPoint x="640" y="390" as="targetPoint" />
          </mxGeometry>
        </mxCell>
        <mxCell id="ZZL4uxudQZsR0YkGOQYg-14" value="Supervisor Approval" style="rhombus;whiteSpace=wrap;html=1;" vertex="1" parent="WIyWlLk6GJQsqaUBKTNV-1">
          <mxGeometry x="410" y="357.5" width="180" height="65" as="geometry" />
        </mxCell>
        <mxCell id="ZZL4uxudQZsR0YkGOQYg-19" value="Pending Approval Tab" style="rounded=0;whiteSpace=wrap;html=1;" vertex="1" parent="WIyWlLk6GJQsqaUBKTNV-1">
          <mxGeometry x="650" y="370" width="130" height="40" as="geometry" />
        </mxCell>
        <mxCell id="ZZL4uxudQZsR0YkGOQYg-23" style="edgeStyle=orthogonalEdgeStyle;rounded=0;orthogonalLoop=1;jettySize=auto;html=1;exitX=0.5;exitY=1;exitDx=0;exitDy=0;entryX=0.5;entryY=0;entryDx=0;entryDy=0;" edge="1" parent="WIyWlLk6GJQsqaUBKTNV-1" source="ZZL4uxudQZsR0YkGOQYg-20" target="ZZL4uxudQZsR0YkGOQYg-22">
          <mxGeometry relative="1" as="geometry" />
        </mxCell>
        <mxCell id="ZZL4uxudQZsR0YkGOQYg-20" value="Backend Service Upload PO to Netsuite" style="rounded=1;whiteSpace=wrap;html=1;" vertex="1" parent="WIyWlLk6GJQsqaUBKTNV-1">
          <mxGeometry x="205" y="585" width="130" height="60" as="geometry" />
        </mxCell>
        <mxCell id="ZZL4uxudQZsR0YkGOQYg-25" value="No" style="edgeStyle=orthogonalEdgeStyle;rounded=0;orthogonalLoop=1;jettySize=auto;html=1;exitX=0.5;exitY=1;exitDx=0;exitDy=0;entryX=0.5;entryY=0;entryDx=0;entryDy=0;" edge="1" parent="WIyWlLk6GJQsqaUBKTNV-1" source="ZZL4uxudQZsR0YkGOQYg-22" target="ZZL4uxudQZsR0YkGOQYg-24">
          <mxGeometry relative="1" as="geometry" />
        </mxCell>
        <mxCell id="ZZL4uxudQZsR0YkGOQYg-27" style="edgeStyle=orthogonalEdgeStyle;rounded=0;orthogonalLoop=1;jettySize=auto;html=1;exitX=0;exitY=0.5;exitDx=0;exitDy=0;entryX=0;entryY=0.5;entryDx=0;entryDy=0;" edge="1" parent="WIyWlLk6GJQsqaUBKTNV-1" source="ZZL4uxudQZsR0YkGOQYg-22" target="ZZL4uxudQZsR0YkGOQYg-12">
          <mxGeometry relative="1" as="geometry">
            <Array as="points">
              <mxPoint x="80" y="710" />
              <mxPoint x="80" y="520" />
            </Array>
          </mxGeometry>
        </mxCell>
        <mxCell id="ZZL4uxudQZsR0YkGOQYg-28" value="Yes, Wait for programmer handle" style="edgeLabel;html=1;align=center;verticalAlign=middle;resizable=0;points=[];" vertex="1" connectable="0" parent="ZZL4uxudQZsR0YkGOQYg-27">
          <mxGeometry y="-1" relative="1" as="geometry">
            <mxPoint as="offset" />
          </mxGeometry>
        </mxCell>
        <mxCell id="ZZL4uxudQZsR0YkGOQYg-22" value="Error" style="rhombus;whiteSpace=wrap;html=1;" vertex="1" parent="WIyWlLk6GJQsqaUBKTNV-1">
          <mxGeometry x="230" y="690" width="80" height="40" as="geometry" />
        </mxCell>
        <mxCell id="ZZL4uxudQZsR0YkGOQYg-30" style="edgeStyle=orthogonalEdgeStyle;rounded=0;orthogonalLoop=1;jettySize=auto;html=1;exitX=0.5;exitY=1;exitDx=0;exitDy=0;entryX=0.5;entryY=0;entryDx=0;entryDy=0;" edge="1" parent="WIyWlLk6GJQsqaUBKTNV-1" source="ZZL4uxudQZsR0YkGOQYg-24" target="ZZL4uxudQZsR0YkGOQYg-29">
          <mxGeometry relative="1" as="geometry" />
        </mxCell>
        <mxCell id="ZZL4uxudQZsR0YkGOQYg-24" value="Pending Receipt Tab" style="rounded=0;whiteSpace=wrap;html=1;" vertex="1" parent="WIyWlLk6GJQsqaUBKTNV-1">
          <mxGeometry x="210" y="770" width="120" height="40" as="geometry" />
        </mxCell>
        <mxCell id="ZZL4uxudQZsR0YkGOQYg-29" value="The previous IR process." style="shape=process;whiteSpace=wrap;html=1;backgroundOutline=1;" vertex="1" parent="WIyWlLk6GJQsqaUBKTNV-1">
          <mxGeometry x="200" y="860" width="140" height="60" as="geometry" />
        </mxCell>
      </root>
    </mxGraphModel>
  </diagram>
</mxfile>
